<?xml version="1.0" encoding="UTF-8" ?>
<!DOCTYPE svg PUBLIC "-//W3C//DTD SVG 1.1//EN" "http://www.w3.org/Graphics/SVG/1.1/DTD/svg11.dtd">
<svg width="882pt" height="1000pt" viewBox="0 0 882 1000" version="1.1" xmlns="http://www.w3.org/2000/svg">
<g id="#ffffffff">
<path fill="#ffffff" opacity="1.00" d=" M 196.17 17.94 C 199.27 3.96 216.42 -3.69 229.27 1.82 C 236.91 5.03 243.03 12.17 244.29 20.44 C 245.29 29.22 243.99 38.09 245.13 46.85 C 245.94 49.55 248.74 50.79 250.90 52.24 C 281.54 69.91 312.23 87.49 342.87 105.15 C 355.08 112.16 358.71 130.85 349.22 141.49 C 343.81 147.32 335.28 147.48 327.90 147.81 C 327.37 179.00 327.68 210.20 327.87 241.40 C 337.56 241.85 347.29 241.21 356.97 242.01 C 363.00 242.57 368.13 247.05 370.44 252.50 C 372.51 257.03 372.09 262.13 372.22 266.98 C 372.15 274.01 373.06 281.23 370.96 288.07 C 369.88 291.80 367.68 295.21 364.63 297.64 C 355.03 305.67 343.58 311.14 334.02 319.22 C 330.97 321.43 331.65 325.66 331.72 328.93 C 336.13 383.61 340.56 438.28 344.90 492.96 C 345.29 497.66 345.29 502.90 348.65 506.62 C 352.07 507.13 355.53 507.40 358.99 507.37 C 391.34 507.33 423.69 507.31 456.04 507.27 C 465.97 507.57 474.75 498.51 474.61 488.67 C 474.75 445.79 474.71 402.92 474.83 360.05 C 474.89 354.37 475.62 348.10 479.80 343.84 C 483.99 338.92 490.82 337.63 496.98 337.71 C 530.33 337.67 563.67 337.74 597.02 337.75 C 606.81 337.36 615.38 346.31 615.42 355.94 C 615.48 503.29 615.50 650.63 615.57 797.98 C 615.84 803.14 615.61 808.57 617.51 813.46 C 619.48 817.91 624.75 818.22 628.90 819.00 C 652.85 823.17 677.12 818.06 700.18 811.62 C 707.29 809.79 713.65 818.86 710.15 825.11 C 699.22 848.50 678.94 866.07 657.14 879.12 C 629.79 895.30 598.48 903.81 567.10 907.54 C 533.66 910.39 499.88 907.77 466.95 901.54 C 427.13 894.04 388.98 880.12 350.69 867.20 C 310.03 853.30 268.43 841.46 225.77 835.69 C 214.21 834.31 202.62 832.85 190.96 832.98 C 178.30 832.94 165.63 832.47 152.98 833.19 C 110.35 836.03 68.30 847.07 29.82 865.65 C 23.97 868.41 18.27 871.68 11.93 873.19 C 7.72 874.11 2.12 871.85 1.89 866.99 C 0.65 856.07 1.53 845.02 1.31 834.05 C 1.56 828.76 0.68 823.31 2.22 818.16 C 3.30 814.78 5.52 811.62 8.73 810.01 C 27.51 802.80 47.28 798.67 66.29 792.16 C 72.69 788.67 72.69 780.45 73.42 774.10 C 84.42 634.42 95.45 494.73 106.66 355.06 C 107.21 347.36 108.02 339.68 108.40 331.97 C 108.42 328.16 109.07 323.75 106.35 320.62 C 97.94 310.98 85.06 307.01 76.15 297.94 C 73.70 295.30 71.14 292.45 70.41 288.81 C 68.49 279.31 69.40 269.56 69.57 259.95 C 69.48 251.89 75.06 243.64 83.17 241.99 C 93.51 241.15 103.91 241.92 114.26 241.18 C 114.46 210.07 114.48 178.96 114.34 147.85 C 106.46 147.37 97.35 148.68 90.88 143.14 C 80.48 132.86 82.95 113.02 95.73 105.75 C 123.08 89.25 150.80 73.37 178.52 57.50 C 184.10 54.33 189.55 50.96 194.93 47.46 C 196.01 37.65 194.82 27.72 196.17 17.94 M 156.23 148.11 C 156.09 179.25 156.12 210.39 156.32 241.53 C 198.85 241.33 241.38 242.02 283.90 241.23 C 284.07 210.15 284.11 179.08 284.02 148.00 C 241.43 147.84 198.83 147.87 156.23 148.11 M 357.83 651.96 C 360.89 694.59 364.20 737.21 367.73 779.80 C 368.11 784.73 373.02 787.23 377.03 788.99 C 408.09 801.36 440.55 811.32 474.08 813.57 C 475.18 800.08 474.52 786.53 474.72 773.01 C 474.72 739.66 474.81 706.31 474.75 672.96 C 474.53 666.01 474.41 658.54 470.48 652.52 C 465.95 646.00 457.63 643.34 449.98 643.48 C 421.32 643.59 392.65 643.61 363.98 643.71 C 359.90 643.82 357.68 648.33 357.83 651.96 Z" />
<path fill="#ffffff" opacity="1.00" d=" M 854.16 57.04 C 859.82 55.74 866.04 54.88 871.54 57.32 C 877.21 59.87 880.48 65.97 881.11 71.97 C 882.06 81.55 881.38 91.19 882.00 100.79 L 882.00 269.44 C 881.07 282.25 881.88 295.11 881.40 307.94 C 881.02 315.86 875.09 323.17 867.45 325.26 C 862.86 326.51 858.21 324.87 853.70 324.09 C 799.86 313.52 746.13 302.41 692.39 291.32 C 651.27 282.81 610.11 274.46 569.00 265.89 C 518.70 255.07 468.28 244.86 417.93 234.31 C 394.25 229.18 370.34 225.03 346.87 218.92 C 346.72 206.28 346.54 193.65 346.62 181.01 C 346.69 175.73 346.23 170.38 347.50 165.20 C 354.19 162.91 361.27 162.24 368.15 160.67 C 394.84 154.95 421.53 149.24 448.23 143.53 C 534.74 125.12 621.12 106.06 707.67 87.82 C 756.55 77.76 805.35 67.40 854.16 57.04 Z" />
<path fill="#ffffff" opacity="1.00" d=" M 140.59 876.90 C 155.01 875.38 169.52 875.77 183.98 875.70 C 199.44 875.73 214.80 877.74 230.06 880.07 C 265.16 885.49 299.32 895.65 332.77 907.39 C 368.79 919.41 404.52 932.92 441.96 939.92 C 457.37 942.74 472.95 944.48 488.52 946.23 C 503.48 947.82 518.60 948.25 533.59 946.87 C 542.29 946.25 551.09 945.10 559.78 946.35 C 563.37 948.36 564.64 953.12 563.57 956.92 C 562.14 960.45 558.95 962.82 556.07 965.13 C 536.57 978.61 514.20 987.64 491.14 992.87 C 457.34 1000.37 422.18 1001.05 387.97 995.99 C 333.45 988.15 282.13 967.23 229.55 951.81 C 209.33 946.14 189.04 940.45 168.20 937.52 C 145.30 934.34 122.14 931.68 98.98 933.06 C 73.75 934.03 48.53 936.99 23.96 942.96 C 17.92 944.19 11.27 946.79 5.39 943.60 C 1.72 942.05 0.17 937.67 1.08 933.96 C 2.15 929.06 6.38 925.85 10.08 922.87 C 48.15 895.58 94.33 881.54 140.59 876.90 Z" />
</g>
</svg>
